<svg width="18" height="18" viewBox="0 0 18 18" fill="none" xmlns="http://www.w3.org/2000/svg">
<path d="M8.99999 10.1667L11.4167 12.5834C11.5694 12.7362 11.7639 12.8126 12 12.8126C12.2361 12.8126 12.4305 12.7362 12.5833 12.5834C12.7361 12.4306 12.8125 12.2362 12.8125 12.0001C12.8125 11.764 12.7361 11.5695 12.5833 11.4167L10.1667 9.00008L12.5833 6.58342C12.7361 6.43064 12.8125 6.23619 12.8125 6.00008C12.8125 5.76397 12.7361 5.56953 12.5833 5.41675C12.4305 5.26397 12.2361 5.18758 12 5.18758C11.7639 5.18758 11.5694 5.26397 11.4167 5.41675L8.99999 7.83342L6.58332 5.41675C6.43055 5.26397 6.2361 5.18758 5.99999 5.18758C5.76388 5.18758 5.56944 5.26397 5.41666 5.41675C5.26388 5.56953 5.18749 5.76397 5.18749 6.00008C5.18749 6.23619 5.26388 6.43064 5.41666 6.58342L7.83332 9.00008L5.41666 11.4167C5.26388 11.5695 5.18749 11.764 5.18749 12.0001C5.18749 12.2362 5.26388 12.4306 5.41666 12.5834C5.56944 12.7362 5.76388 12.8126 5.99999 12.8126C6.2361 12.8126 6.43055 12.7362 6.58332 12.5834L8.99999 10.1667ZM8.99999 17.3334C7.84721 17.3334 6.76388 17.1145 5.74999 16.6767C4.7361 16.239 3.85416 15.6454 3.10416 14.8959C2.35416 14.1465 1.76055 13.2645 1.32332 12.2501C0.886102 11.2356 0.667213 10.1523 0.666658 9.00008C0.666102 7.84786 0.884991 6.76453 1.32332 5.75008C1.76166 4.73564 2.35527 3.85369 3.10416 3.10425C3.85305 2.3548 4.73499 1.76119 5.74999 1.32341C6.76499 0.885637 7.84832 0.666748 8.99999 0.666748C10.1517 0.666748 11.235 0.885637 12.25 1.32341C13.265 1.76119 14.1469 2.3548 14.8958 3.10425C15.6447 3.85369 16.2386 4.73564 16.6775 5.75008C17.1164 6.76453 17.335 7.84786 17.3333 9.00008C17.3317 10.1523 17.1128 11.2356 16.6767 12.2501C16.2405 13.2645 15.6469 14.1465 14.8958 14.8959C14.1447 15.6454 13.2628 16.2392 12.25 16.6776C11.2372 17.1159 10.1539 17.3345 8.99999 17.3334Z" fill="white"/>
</svg>
