<svg width="25" height="24" viewBox="0 0 25 24" fill="none" xmlns="http://www.w3.org/2000/svg">
<path d="M16.2501 8.00098C17.8414 8.00098 19.3675 8.63312 20.4928 9.75834C21.618 10.8836 22.2501 12.4097 22.2501 14.001V21.001H18.2501V14.001C18.2501 13.4705 18.0394 12.9618 17.6643 12.5868C17.2893 12.2117 16.7806 12.001 16.2501 12.001C15.7197 12.001 15.211 12.2117 14.8359 12.5868C14.4608 12.9618 14.2501 13.4705 14.2501 14.001V21.001H10.2501V14.001C10.2501 12.4097 10.8823 10.8836 12.0075 9.75834C13.1327 8.63312 14.6588 8.00098 16.2501 8.00098Z" fill="black"/>
<path d="M6.25012 9.00098H2.25012V21.001H6.25012V9.00098Z" fill="black"/>
<path d="M4.25012 6C5.35469 6 6.25012 5.10457 6.25012 4C6.25012 2.89543 5.35469 2 4.25012 2C3.14555 2 2.25012 2.89543 2.25012 4C2.25012 5.10457 3.14555 6 4.25012 6Z" fill="black"/>
</svg>
